<svg width="45" height="60" viewBox="0 0 45 60" fill="none" xmlns="http://www.w3.org/2000/svg">
<path d="M1.64062 11.2257C1.64062 5.0259 6.66654 0 12.8664 0H32.1282C38.328 0 43.354 5.0259 43.354 11.2257C43.354 15.1514 41.3388 18.6066 38.2864 20.6129C41.3388 22.6194 43.354 26.0745 43.354 30.0002C43.354 36.2 38.328 41.226 32.1282 41.226H31.8845C28.978 41.226 26.3295 40.1214 24.3359 38.3091V48.6524C24.3359 54.9348 19.1786 60 12.9268 60C6.74251 60 1.64062 54.9894 1.64062 48.7743C1.64062 44.8487 3.65561 41.3938 6.70772 39.3873C3.65561 37.3808 1.64062 33.9258 1.64062 30.0002C1.64062 26.0745 3.65578 22.6194 6.70811 20.6129C3.65578 18.6066 1.64062 15.1514 1.64062 11.2257ZM20.6588 22.4516H12.8664C8.69733 22.4516 5.31771 25.8313 5.31771 30.0002C5.31771 34.1531 8.67127 37.5227 12.8181 37.5487C12.8341 37.5486 12.8502 37.5486 12.8664 37.5486H20.6588V22.4516ZM24.3359 30.0002C24.3359 34.1692 27.7154 37.5489 31.8845 37.5489H32.1282C36.2973 37.5489 39.6769 34.1692 39.6769 30.0002C39.6769 25.8313 36.2973 22.4516 32.1282 22.4516H31.8845C27.7154 22.4516 24.3359 25.8313 24.3359 30.0002ZM12.8664 41.226C12.8502 41.226 12.8341 41.2259 12.8181 41.2259C8.67127 41.2518 5.31771 44.6214 5.31771 48.7743C5.31771 52.928 8.74248 56.3229 12.9268 56.3229C17.1786 56.3229 20.6588 52.8734 20.6588 48.6524V41.226H12.8664ZM12.8664 3.67709C8.69733 3.67709 5.31771 7.05671 5.31771 11.2257C5.31771 15.3947 8.69733 18.7743 12.8664 18.7743H20.6588V3.67709H12.8664ZM24.3359 18.7743H32.1282C36.2973 18.7743 39.6769 15.3947 39.6769 11.2257C39.6769 7.05671 36.2973 3.67709 32.1282 3.67709H24.3359V18.7743Z" fill="white"/>
</svg>
