<svg width="60" height="60" viewBox="0 0 60 60" fill="none" xmlns="http://www.w3.org/2000/svg">
<path d="M36.025 55.875C36.025 56.0691 36.0702 56.2604 36.157 56.434C36.2438 56.6076 36.3698 56.7586 36.525 56.875C36.6803 56.9914 36.8605 57.0701 37.0514 57.1048C37.2423 57.1395 37.4387 57.1293 37.625 57.075C44.136 55.1956 49.7495 51.0284 53.4329 45.34C57.1163 39.6516 58.6219 32.8245 57.6728 26.1144C56.7238 19.4044 53.3838 13.2626 48.2673 8.81889C43.1508 4.37515 36.6019 1.92824 29.825 1.92824C23.0482 1.92824 16.4992 4.37515 11.3827 8.81889C6.26622 13.2626 2.92627 19.4044 1.97719 26.1144C1.02812 32.8245 2.53375 39.6516 6.21715 45.34C9.90056 51.0284 15.514 55.1956 22.025 57.075C22.2113 57.1293 22.4077 57.1395 22.5986 57.1048C22.7896 57.0701 22.9698 56.9914 23.125 56.875C23.2803 56.7586 23.4063 56.6076 23.4931 56.434C23.5798 56.2604 23.625 56.0691 23.625 55.875V50C21.9101 50.5181 20.0621 50.3615 18.4589 49.5622C16.8557 48.7629 15.6184 47.3813 15 45.7C14.3012 43.5724 13.1401 41.6258 11.6 40C18.725 41.725 18.85 46.35 23.7 44.175C23.8466 42.5527 24.3873 40.9908 25.275 39.625C19.775 39 13.975 38.125 13.975 28.625C13.9273 26.1702 14.822 23.7904 16.475 21.975C15.722 19.8394 15.8114 17.497 16.725 15.425C16.725 15.425 18.8 14.75 23.55 17.925C27.6401 16.7953 31.9599 16.7953 36.05 17.925C40.775 14.725 42.85 15.425 42.85 15.425C43.7636 17.497 43.853 19.8394 43.1 21.975C44.7553 23.7891 45.6503 26.1698 45.6 28.625C45.6 38.15 39.8 39 34.275 39.6C35.4582 41.306 36.0549 43.3504 35.975 45.425L36.025 55.875Z" stroke="white" stroke-width="3" stroke-linecap="round" stroke-linejoin="round"/>
</svg>
