<svg width="60" height="60" viewBox="0 0 60 60" fill="none" xmlns="http://www.w3.org/2000/svg">
<g clip-path="url(#clip0_110_118)">
<path d="M55.6276 29.55C55.6246 27.8291 55.052 26.1576 53.9991 24.7963C53.277 23.8626 52.3568 23.1109 51.3127 22.5902C50.5338 22.2018 50.0454 21.324 50.3249 20.4997L56.6055 1.98179C56.9354 1.00907 56.2121 0 55.1849 0H22.3524C21.3254 0 20.6021 1.00889 20.9319 1.98157L27.2473 20.6117C27.5214 21.4203 27.0559 22.2832 26.3005 22.681C25.2865 23.215 24.397 23.9692 23.7011 24.8957C22.6897 26.2425 22.142 27.8808 22.1401 29.565C22.1401 31.6399 22.9633 33.5265 24.2985 34.9273C24.8679 35.5247 25.0411 36.4527 24.5164 37.0897C23.957 37.7688 23.3546 38.4119 22.7126 39.015C21.0578 40.5911 19.1508 41.8758 17.0725 42.817C16.6171 43.0232 16.0795 42.9746 15.7061 42.6423C14.2712 41.3653 13.6036 39.512 13.9635 37.7308C14.0561 37.2726 14.4308 36.9446 14.862 36.764C16.3351 36.1472 17.5886 35.0887 18.444 33.7259C19.4314 32.1529 19.8231 30.2784 19.5482 28.4416C19.2732 26.6048 18.3499 24.9271 16.9452 23.7121C15.5406 22.497 13.7474 21.825 11.8901 21.8175C9.82688 21.8201 7.84891 22.6409 6.38998 24.0999C4.93105 25.5588 4.11026 27.5368 4.10762 29.6C4.10762 31.4215 4.74804 33.1139 5.81005 34.436C6.12142 34.8236 6.21203 35.3527 6.00012 35.8025C4.83762 38.2 3.51762 40.91 3.01262 43.95C2.00512 50.03 3.65512 54.91 7.63512 57.6725C9.78919 59.1917 12.3617 60.005 14.9976 60C19.5651 60 24.2026 57.7075 28.6851 55.4825C31.8826 53.9025 35.1826 52.2525 38.4301 51.4525C39.6301 51.1575 40.8801 50.985 42.2001 50.7925C44.8751 50.41 47.6376 50.0125 50.1201 48.5675C51.5378 47.7551 52.7607 46.6425 53.703 45.3076C54.6453 43.9727 55.2843 42.4479 55.5751 40.84C55.9602 38.64 55.6634 36.4282 54.8201 34.4302C54.6164 33.9476 54.644 33.3979 54.8702 32.9254C55.3597 31.9025 55.6276 30.7616 55.6276 29.55ZM52.2401 29.55C52.2401 31.9625 50.2776 33.925 47.8651 33.925C46.9566 33.9225 46.0714 33.6377 45.3318 33.11C44.5923 32.5823 44.035 31.8378 43.7371 30.9795C43.4392 30.1213 43.4154 29.1916 43.669 28.3192C43.9226 27.4469 44.4411 26.6748 45.1526 26.11C45.1643 26.0983 45.1767 26.0875 45.1899 26.0777C45.3222 25.9795 45.467 25.8814 45.612 25.7854C45.6173 25.7819 45.6189 25.7807 45.6251 25.7794C45.6372 25.7768 45.6471 25.7591 45.6579 25.7532C45.7134 25.7232 45.7675 25.6837 45.8229 25.6514C45.839 25.642 45.8576 25.637 45.8747 25.6297C45.8908 25.6228 45.9082 25.6184 45.9241 25.6108C45.9895 25.5797 46.0671 25.5486 46.1426 25.5175C46.2173 25.4876 46.2921 25.4595 46.3559 25.4302C46.3769 25.4205 46.3995 25.4123 46.4203 25.4023C46.4313 25.397 46.4436 25.3961 46.4553 25.3927C46.5067 25.3779 46.5581 25.3552 46.6096 25.3385C46.6346 25.3304 46.6604 25.3259 46.6853 25.3175C46.706 25.3105 46.7284 25.3078 46.7497 25.3033C46.8185 25.2886 46.8796 25.2741 46.9524 25.2613C46.9575 25.2604 46.9627 25.26 46.968 25.26C46.9744 25.26 46.9808 25.2593 46.9871 25.258L47.2219 25.2083C47.2324 25.2061 47.2402 25.2052 47.2509 25.2048C47.2881 25.2035 47.3282 25.188 47.3652 25.1842C47.4151 25.1792 47.4645 25.17 47.5151 25.17H47.6026C47.6901 25.17 47.7776 25.1525 47.8801 25.1525H48.1051C48.163 25.1525 48.2106 25.1525 48.2635 25.1624C48.2863 25.1666 48.3094 25.17 48.3326 25.17C48.4701 25.1875 48.6101 25.205 48.7501 25.24C49.7364 25.4513 50.6205 25.994 51.2555 26.7777C51.8905 27.5614 52.2379 28.5414 52.2401 29.55ZM25.7769 5.45529C25.4483 4.48285 26.1715 3.475 27.198 3.475H50.3402C51.3672 3.475 52.0905 4.48396 51.7607 5.45665L46.2642 21.6681C46.1999 21.8578 46.0417 21.9956 45.849 22.0504C45.5802 22.1268 45.2882 22.0124 45.1651 21.7615L40.1205 11.4717C39.5728 10.3544 37.9813 10.3514 37.4294 11.4666L32.3825 21.6631C32.2549 21.9211 31.9596 22.0471 31.6779 21.9881C31.4732 21.9452 31.3012 21.7999 31.2342 21.6018L25.7769 5.45529ZM38.7582 28.0375C38.0428 28.0375 37.4416 27.5254 37.192 26.8549C36.8998 26.0699 36.4814 25.3375 35.9533 24.6868C35.5329 24.1689 35.3862 23.4564 35.6822 22.8587L37.4255 19.3381C37.9778 18.2227 39.5699 18.2264 40.117 19.3444L41.9366 23.0626C42.2184 23.6383 42.0916 24.3213 41.7015 24.8298C41.2331 25.4404 40.8498 26.1207 40.5745 26.8562C40.3239 27.5258 39.7229 28.0375 39.0079 28.0375H38.7582ZM28.8251 25.2925C28.9039 25.2763 28.9698 25.2601 29.0486 25.2458C29.0612 25.2436 29.0741 25.2425 29.0869 25.2425C29.1073 25.2425 29.1275 25.2395 29.1475 25.2352C29.1853 25.2272 29.2221 25.2233 29.2589 25.218C29.3049 25.2113 29.3511 25.205 29.3976 25.205C29.4676 25.205 29.5201 25.1875 29.5876 25.1875H30.2651C30.3351 25.1875 30.3876 25.205 30.4401 25.205C30.4428 25.205 30.4454 25.205 30.4479 25.205C30.5028 25.2052 30.5543 25.2301 30.6086 25.2381C30.6329 25.2417 30.657 25.2449 30.6831 25.2499C30.7061 25.2543 30.722 25.2551 30.7451 25.2595C30.7696 25.2642 30.8 25.2776 30.8245 25.2826L31.0229 25.3235C31.0277 25.3245 31.0326 25.325 31.0375 25.325C31.0442 25.325 31.0509 25.3259 31.0574 25.3278C31.1105 25.3428 31.1637 25.357 31.2156 25.379C31.242 25.3902 31.2634 25.3993 31.2904 25.4089C31.3086 25.4153 31.3344 25.4181 31.3528 25.4239C31.3916 25.436 31.4359 25.4493 31.4745 25.4684C31.4917 25.4769 31.5114 25.4837 31.5284 25.4925C31.5426 25.4998 31.5575 25.5038 31.572 25.5104C31.6318 25.5375 31.6915 25.5545 31.7513 25.5832C31.7571 25.586 31.7635 25.5875 31.77 25.5875C31.775 25.5875 31.78 25.5884 31.7847 25.5902C31.8592 25.619 31.9297 25.6573 31.9944 25.704C31.9998 25.7079 32.0062 25.71 32.0128 25.71C32.0176 25.71 32.0224 25.7111 32.0266 25.7133C32.0888 25.7452 32.151 25.7882 32.2131 25.8212C32.2242 25.8271 32.2387 25.8295 32.2473 25.8387C32.2559 25.848 32.2685 25.8503 32.2795 25.8564C32.3367 25.8882 32.3848 25.9304 32.4403 25.9619C32.45 25.9675 32.4591 25.974 32.4671 25.9819C32.4708 25.9856 32.4747 25.9891 32.4789 25.9922C32.684 26.146 32.8745 26.3192 33.0626 26.49L33.0801 26.5075C33.8543 27.323 34.2841 28.4056 34.2801 29.53C34.2417 30.6654 33.7637 31.7414 32.947 32.531C32.1302 33.3207 31.0386 33.762 29.9026 33.762C28.7666 33.762 27.675 33.3207 26.8582 32.531C26.0415 31.7414 25.5635 30.6654 25.5251 29.53C25.5224 28.5565 25.8459 27.6101 26.4441 26.842C27.0423 26.0739 27.8806 25.5283 28.8251 25.2925ZM11.7301 25.17C14.1451 25.17 16.1076 27.135 16.1076 29.5475C16.1076 31.96 14.1451 33.925 11.7326 33.925C9.32012 33.925 7.35262 31.9625 7.35262 29.55C7.35262 27.1375 9.31762 25.17 11.7301 25.17ZM52.1376 40.2325C51.94 41.3439 51.4997 42.398 50.8481 43.3197C50.1964 44.2415 49.3495 45.0081 48.3676 45.565C46.4726 46.66 44.1451 47.0075 41.6951 47.355C40.3176 47.5315 38.9493 47.7743 37.5951 48.0825C33.9826 48.97 30.5101 50.7075 27.1401 52.375C22.8301 54.51 18.7651 56.525 14.9976 56.525C13.0657 56.537 11.1799 55.9347 9.61262 54.805C5.79012 52.165 5.98012 47.215 6.43262 44.505C6.85012 41.9675 8.01262 39.59 9.12512 37.3125C9.23978 37.0873 9.49656 36.9806 9.73924 37.0511C9.7834 37.064 9.8278 37.0764 9.87243 37.0883C10.2222 37.182 10.4603 37.5187 10.4247 37.879C10.0822 41.3513 11.9451 44.8231 15.3801 46.59L15.4508 46.6272C15.826 46.8248 16.2673 46.8543 16.6655 46.7085L16.7501 46.6775C19.7901 45.6 22.6051 43.845 25.0901 41.5C26.223 40.4436 27.2473 39.2776 28.1483 38.0195C28.4953 37.5349 29.0835 37.2816 29.6794 37.293C29.7538 37.2944 29.8282 37.295 29.9026 37.295C31.6223 37.291 33.2924 36.7183 34.6526 35.666C35.706 34.8511 36.5277 33.7841 37.0473 32.5715C37.3159 31.9446 37.8982 31.4775 38.5802 31.4775H39.1801C39.8632 31.4775 40.4462 31.9461 40.7144 32.5743C41.2327 33.7883 42.0545 34.8566 43.1089 35.6717C44.4708 36.7246 46.1437 37.2955 47.8651 37.295C48.6523 37.295 49.4082 37.1755 50.1196 36.9568C51.0244 36.6787 52.0918 37.0591 52.2021 37.9993C52.2887 38.7378 52.2713 39.4855 52.1376 40.2325Z" fill="white"/>
</g>
<defs>
<clipPath id="clip0_110_118">
<rect width="60" height="60" fill="white"/>
</clipPath>
</defs>
</svg>
